<svg width="16" height="16" viewBox="0 0 16 16" fill="none" xmlns="http://www.w3.org/2000/svg">
<path fill-rule="evenodd" clip-rule="evenodd" d="M2 8C2 4.7 4.7 2 8 2C11.3 2 14 4.7 14 8C14 11.3 11.3 14 8 14C4.7 14 2 11.3 2 8ZM9.22145 10.2714C9.41671 10.4667 9.73329 10.4667 9.92855 10.2714L10.2714 9.92855C10.4667 9.73329 10.4667 9.41671 10.2714 9.22145L9.40355 8.35355C9.20829 8.15829 9.20829 7.84171 9.40355 7.64645L10.2714 6.77855C10.4667 6.58329 10.4667 6.26671 10.2714 6.07145L9.92855 5.72855C9.73329 5.53329 9.41671 5.53329 9.22145 5.72855L8.35355 6.59645C8.15829 6.79171 7.84171 6.79171 7.64645 6.59645L6.77855 5.72855C6.58329 5.53329 6.26671 5.53329 6.07145 5.72855L5.72855 6.07145C5.53329 6.26671 5.53329 6.58329 5.72855 6.77855L6.59645 7.64645C6.79171 7.84171 6.79171 8.15829 6.59645 8.35355L5.72855 9.22145C5.53329 9.41671 5.53329 9.73329 5.72855 9.92855L6.07145 10.2714C6.26671 10.4667 6.58329 10.4667 6.77855 10.2714L7.64645 9.40355C7.84171 9.20829 8.15829 9.20829 8.35355 9.40355L9.22145 10.2714Z" fill="#E80707"/>
<circle cx="8" cy="8" r="4" fill="#E80707"/>
<path fill-rule="evenodd" clip-rule="evenodd" d="M10.2425 10.2425C9.90919 10.5758 9.36876 10.5758 9.03543 10.2425L5.41415 6.62119C5.08082 6.28786 5.08082 5.74742 5.41415 5.41409C5.74748 5.08076 6.28792 5.08076 6.62125 5.41409L10.2425 9.03537C10.5759 9.3687 10.5759 9.90913 10.2425 10.2425Z" fill="white"/>
<path fill-rule="evenodd" clip-rule="evenodd" d="M10.2426 5.41409C10.5759 5.74742 10.5759 6.28786 10.2426 6.62119L6.62131 10.2425C6.28798 10.5758 5.74754 10.5758 5.41422 10.2425C5.08089 9.90913 5.08089 9.3687 5.41422 9.03537L9.03549 5.41409C9.36882 5.08076 9.90926 5.08076 10.2426 5.41409Z" fill="white"/>
</svg>
