<svg width="24" height="24" viewBox="0 0 24 24" fill="none" xmlns="http://www.w3.org/2000/svg">
<path d="M21 12C21 12.1856 20.921 12.3637 20.7803 12.4949C20.6397 12.6262 20.4489 12.7 20.25 12.7H5.56082L11.031 17.8044C11.1006 17.8695 11.1559 17.9467 11.1936 18.0316C11.2313 18.1166 11.2507 18.2077 11.2507 18.2996C11.2507 18.3916 11.2313 18.4827 11.1936 18.5677C11.1559 18.6526 11.1006 18.7298 11.031 18.7949C10.9613 18.8599 10.8785 18.9115 10.7875 18.9467C10.6965 18.9819 10.5989 19 10.5003 19C10.4018 19 10.3042 18.9819 10.2132 18.9467C10.1221 18.9115 10.0394 18.8599 9.96974 18.7949L3.21996 12.4952C3.15023 12.4302 3.09491 12.353 3.05717 12.268C3.01943 12.1831 3 12.092 3 12C3 11.908 3.01943 11.8169 3.05717 11.732C3.09491 11.647 3.15023 11.5698 3.21996 11.5048L9.96974 5.20513C10.1105 5.07379 10.3013 5 10.5003 5C10.6994 5 10.8902 5.07379 11.031 5.20513C11.1717 5.33647 11.2507 5.51461 11.2507 5.70035C11.2507 5.88609 11.1717 6.06423 11.031 6.19557L5.56082 11.3H20.25C20.4489 11.3 20.6397 11.3738 20.7803 11.5051C20.921 11.6363 21 11.8144 21 12Z" fill="white"/>
</svg>
