<svg width="19" height="20" viewBox="0 0 19 20" fill="none" xmlns="http://www.w3.org/2000/svg">
<path fill-rule="evenodd" clip-rule="evenodd" d="M4.47061 9.44434C3.85334 9.44434 3.35297 9.94178 3.35297 10.5554V11.6666C3.35297 12.2802 3.85334 12.7777 4.47061 12.7777H5.58826C6.20554 12.7777 6.70591 12.2802 6.70591 11.6666V10.5554C6.70591 9.94178 6.20554 9.44434 5.58826 9.44434H4.47061ZM4.47061 10.5554V11.6666H5.58826V10.5554H4.47061Z" fill="#6E625C"/>
<path fill-rule="evenodd" clip-rule="evenodd" d="M7.82361 10.5554C7.82361 9.94178 8.32398 9.44434 8.94126 9.44434H10.0589C10.6762 9.44434 11.1765 9.94178 11.1765 10.5554V11.6666C11.1765 12.2802 10.6762 12.7777 10.0589 12.7777H8.94126C8.32398 12.7777 7.82361 12.2802 7.82361 11.6666V10.5554ZM8.94126 10.5554H10.0589V11.6666H8.94126V10.5554Z" fill="#6E625C"/>
<path fill-rule="evenodd" clip-rule="evenodd" d="M13.4117 9.44434C12.7944 9.44434 12.2941 9.94178 12.2941 10.5554V11.6666C12.2941 12.2802 12.7944 12.7777 13.4117 12.7777H14.5294C15.1466 12.7777 15.647 12.2802 15.647 11.6666V10.5554C15.647 9.94178 15.1466 9.44434 14.5294 9.44434H13.4117ZM13.4117 10.5554V11.6666H14.5294V10.5554H13.4117Z" fill="#6E625C"/>
<path fill-rule="evenodd" clip-rule="evenodd" d="M3.35297 14.9998C3.35297 14.3861 3.85334 13.8887 4.47061 13.8887H5.58826C6.20554 13.8887 6.70591 14.3861 6.70591 14.9998V16.1109C6.70591 16.7246 6.20554 17.222 5.58826 17.222H4.47061C3.85334 17.222 3.35297 16.7246 3.35297 16.1109V14.9998ZM4.47061 16.1109V14.9998H5.58826V16.1109H4.47061Z" fill="#6E625C"/>
<path fill-rule="evenodd" clip-rule="evenodd" d="M8.94126 13.8887C8.32398 13.8887 7.82361 14.3861 7.82361 14.9998V16.1109C7.82361 16.7246 8.32398 17.222 8.94126 17.222H10.0589C10.6762 17.222 11.1765 16.7246 11.1765 16.1109V14.9998C11.1765 14.3861 10.6762 13.8887 10.0589 13.8887H8.94126ZM10.0589 14.9998H8.94126V16.1109H10.0589V14.9998Z" fill="#6E625C"/>
<path fill-rule="evenodd" clip-rule="evenodd" d="M12.2941 14.9998C12.2941 14.3861 12.7944 13.8887 13.4117 13.8887H14.5294C15.1466 13.8887 15.647 14.3861 15.647 14.9998V16.1109C15.647 16.7246 15.1466 17.222 14.5294 17.222H13.4117C12.7944 17.222 12.2941 16.7246 12.2941 16.1109V14.9998ZM13.4117 16.1109V14.9998H14.5294V16.1109H13.4117Z" fill="#6E625C"/>
<path fill-rule="evenodd" clip-rule="evenodd" d="M5.02941 0C4.72077 0 4.47059 0.248733 4.47059 0.555556V2.22222H2.23529C1.00077 2.22222 0 3.21717 0 4.44444V17.7778C0 19.0051 1.00077 20 2.23529 20H16.7647C17.9992 20 19 19.0051 19 17.7778V4.44444C19 3.21717 17.9992 2.22222 16.7647 2.22222H15.6471V3.88889C15.6471 4.19572 15.3969 4.44444 15.0882 4.44444C14.7796 4.44444 14.5294 4.19572 14.5294 3.88889V0.555556C14.5294 0.248733 14.2792 0 13.9706 0C13.662 0 13.4118 0.248733 13.4118 0.555556V2.22222H6.70588V3.88889C6.70588 4.19572 6.4557 4.44444 6.14706 4.44444C5.83842 4.44444 5.58824 4.19572 5.58824 3.88889V0.555556C5.58824 0.248733 5.33805 0 5.02941 0ZM1.11765 17.7778V8.33333H17.8824V17.7778C17.8824 18.3914 17.382 18.8889 16.7647 18.8889H2.23529C1.61803 18.8889 1.11765 18.3914 1.11765 17.7778Z" fill="#6E625C"/>
</svg>
