<?xml version="1.0" encoding="UTF-8"?>
<svg width="37" height="36" viewBox="0 0 37 36" xmlns="http://www.w3.org/2000/svg">
    <defs>
        <radialGradient id="grad1" cx="7.631" cy="7.2" r="29.44" gradientUnits="userSpaceOnUse">
            <stop offset="0" stop-color="#E5BEAF" />
            <stop offset="1" stop-color="#421803" />
        </radialGradient>
        <linearGradient id="grad2" x1="18.666" y1="18" x2="34.866" y2="34.2" gradientUnits="userSpaceOnUse">
            <stop offset="0" stop-color="#FFDE9C" />
            <stop offset="1" stop-color="#FFA928" />
        </linearGradient>
    </defs>
    <circle cx="16.866" cy="16.2" r="12.6" fill="url(#grad1)" />
    <path d="M21.163,10.831C21.461,10.732 21.792,10.88 22.014,11.123C22.216,11.346 22.326,11.647 22.232,11.917L18.332,23.06C18.134,23.634 17.235,23.443 16.971,22.77L15.16,18.155C15.131,18.076 15.085,17.999 15.034,17.93C14.924,17.779 14.772,17.657 14.601,17.588L10.286,15.838C9.613,15.566 9.435,14.661 10.015,14.473L21.163,10.831Z" fill="#FFFFFF" />
    <circle cx="26.766" cy="26.1" r="8.1" fill="#FFBF4E" fill-opacity="0.8" />
    <circle cx="26.766" cy="26.1" r="8.1" fill="#FFFFFF" fill-opacity="0.08" />
    <path d="M31.541,26.1C31.541,28.737 29.403,30.875 26.766,30.875V34.375C31.336,34.375 35.041,30.67 35.041,26.1H31.541ZM26.766,21.325C29.403,21.325 31.541,23.463 31.541,26.1H35.041C35.041,21.53 31.336,17.825 26.766,17.825V21.325ZM21.991,26.1C21.991,23.463 24.129,21.325 26.766,21.325V17.825C22.196,17.825 18.491,21.53 18.491,26.1H21.991ZM26.766,30.875C24.129,30.875 21.991,28.737 21.991,26.1H18.491C18.491,30.67 22.196,34.375 26.766,34.375V30.875Z" fill="url(#grad2)" />
</svg>
